<svg xmlns="http://www.w3.org/2000/svg" width="328.897" height="402" viewBox="0 0 328.897 402">
  <g id="padlock-unlock" transform="translate(-54.818)">
    <path id="Path_5" data-name="Path 5" d="M375.721,192.327A27.692,27.692,0,0,0,356.3,185H146.176V117.252q0-27.747,21.415-47.373t51.678-19.627q30.263,0,51.673,19.627t21.416,47.373a15.473,15.473,0,0,0,5.42,11.775A18.4,18.4,0,0,0,310.625,134h18.281a18.392,18.392,0,0,0,12.848-4.974,15.5,15.5,0,0,0,5.42-11.775q0-48.423-37.541-82.834T219.269,0Q166.448,0,128.9,34.416T91.361,117.251V185H82.226a27.717,27.717,0,0,0-19.414,7.326,23.245,23.245,0,0,0-7.994,17.8V376.875a23.254,23.254,0,0,0,7.994,17.8A27.717,27.717,0,0,0,82.226,402H356.3a27.7,27.7,0,0,0,19.417-7.325,23.267,23.267,0,0,0,7.994-17.8V210.124A23.234,23.234,0,0,0,375.721,192.327Z" fill="#fff"/>
  </g>
</svg>
