<svg xmlns="http://www.w3.org/2000/svg" width="328.903" height="401.998" viewBox="0 0 328.903 401.998">
  <g id="padlock" transform="translate(-36.548)">
    <path id="Path_6" data-name="Path 6" d="M357.45,190.721a26.431,26.431,0,0,0-19.417-7.993H328.9V127.907q0-52.533-37.685-90.218T201,0q-52.539,0-90.222,37.688T73.091,127.907v54.821H63.956a27.292,27.292,0,0,0-27.408,27.41V374.59A27.289,27.289,0,0,0,63.956,402H338.04a27.289,27.289,0,0,0,27.411-27.408V210.135A26.415,26.415,0,0,0,357.45,190.721Zm-83.363-7.993H127.909V127.907q0-30.263,21.414-51.675T201,54.821q30.269,0,51.677,21.411t21.409,51.675Z" fill="#fff"/>
  </g>
</svg>
