<svg xmlns="http://www.w3.org/2000/svg" width="328.907" height="402" viewBox="0 0 328.907 402">
  <g id="unlock" transform="translate(-36.548)">
    <path id="Path_6" data-name="Path 6" d="M357.45,190.721a26.431,26.431,0,0,0-19.417-7.993H328.9l-10-70.821c0-35.022-2.562-49.095-27.685-74.218S236.02,0,201,0s-65.1,12.563-90.222,37.688-37.684,55.2-37.687,90.219v54.821H63.956a27.292,27.292,0,0,0-27.408,27.41V374.59A27.289,27.289,0,0,0,63.956,402H338.04a27.289,27.289,0,0,0,27.411-27.408V210.135a26.415,26.415,0,0,0-8-19.414Zm-28.55-7.993H127.909V127.907q0-30.263,21.414-51.675T201,54.821c20.179,0,42.579,9.573,51.677,21.411s11.408,15.5,11.409,35.675H318.9Z" fill="#fff"/>
  </g>
</svg>
