<svg id="fullscreen_icon_blue" xmlns="http://www.w3.org/2000/svg" width="2.5" height="2.473" viewBox="0 0 2.5 2.473">
  <g id="Group_1" data-name="Group 1" transform="translate(0 0)">
    <path id="Path_1" data-name="Path 1" d="M15.067,15.1V14.9a.09.09,0,0,0-.1-.1h-.1a.053.053,0,0,1-.038-.086l.383-.383a.093.093,0,0,0,0-.134l-.134-.134a.093.093,0,0,0-.134,0l-.383.383a.052.052,0,0,1-.086-.038v-.1a.09.09,0,0,0-.1-.1H14.2a.09.09,0,0,0-.1.1v.766a.09.09,0,0,0,.1.1h.766A.083.083,0,0,0,15.067,15.1Z" transform="translate(-14.1 -12.711)" fill="#007bff"/>
    <path id="Path_2" data-name="Path 2" d="M.287,1.253.671.87A.052.052,0,0,1,.757.908V1a.09.09,0,0,0,.1.1h.192a.09.09,0,0,0,.1-.1V.238a.09.09,0,0,0-.1-.1H.278a.09.09,0,0,0-.1.1V.429a.09.09,0,0,0,.1.1h.1A.053.053,0,0,1,.412.611L.029.995a.093.093,0,0,0,0,.134l.134.134a.091.091,0,0,0,.125-.01Z" transform="translate(1.36 -0.142)" fill="#007bff"/>
  </g>
</svg>
